<svg width="24" height="24" viewBox="0 0 24 24" fill="none" xmlns="http://www.w3.org/2000/svg">
<path fill-rule="evenodd" clip-rule="evenodd" d="M7.5 5C7.5 3.34315 8.84315 2 10.5 2H13.5C15.1569 2 16.5 3.34315 16.5 5H16.7245C19.6168 5 21.9058 7.44668 21.7135 10.3326L21.309 16.3991C21.0989 19.5509 18.4811 22 15.3223 22H8.67784C5.51905 22 2.90124 19.5509 2.69113 16.3991L2.28669 10.3326C2.0943 7.44668 4.38329 5 7.27562 5L7.5 5ZM13.5 4C14.0523 4 14.5 4.44772 14.5 5L9.5 5C9.5 4.44772 9.94772 4 10.5 4H13.5ZM7.27562 7C5.54022 7 4.16682 8.46801 4.28226 10.1996L4.28701 10.2709C4.33854 10.2949 4.39588 10.3212 4.45878 10.3495C4.79149 10.4994 5.27825 10.7051 5.88274 10.9223C6.84962 11.2697 8.10335 11.6413 9.5 11.865V11.5C9.5 10.3954 10.3954 9.5 11.5 9.5H12.5C13.6046 9.5 14.5 10.3954 14.5 11.5V11.865C15.8967 11.6413 17.1506 11.2697 18.1175 10.9223C18.722 10.7051 19.2087 10.4994 19.5415 10.3495C19.6043 10.3212 19.6616 10.2949 19.7131 10.2709L19.7179 10.1996C19.8333 8.46801 18.4599 7 16.7245 7L7.27562 7ZM5.20647 12.8045C4.92638 12.7038 4.66875 12.6052 4.43644 12.5122L4.6867 16.2661C4.82678 18.3673 6.57198 20 8.67784 20H15.3223C17.4282 20 19.1734 18.3673 19.3134 16.2661L19.5637 12.5122C19.3314 12.6052 19.0738 12.7038 18.7938 12.8045C17.6749 13.2065 16.1813 13.6467 14.5 13.8879V14C14.5 15.3807 13.3807 16.5 12 16.5C10.6193 16.5 9.5 15.3807 9.5 14V13.8879C7.81881 13.6467 6.3253 13.2065 5.20647 12.8045ZM12 14.5C11.7239 14.5 11.5 14.2761 11.5 14V13.018C11.5002 13.0052 11.5002 12.9924 11.5 12.9797V11.5H12.5V14C12.5 14.2761 12.2761 14.5 12 14.5Z" fill="#292C32"/>
</svg>
