<svg width="44" height="44" viewBox="0 0 44 44" fill="none" xmlns="http://www.w3.org/2000/svg">
<path d="M14.6686 25.6663C14.6686 26.6789 13.8478 27.4997 12.8353 27.4997C11.8228 27.4997 11.002 26.6789 11.002 25.6663C11.002 24.6538 11.8228 23.833 12.8353 23.833C13.8478 23.833 14.6686 24.6538 14.6686 25.6663Z" fill="#89A3A5"/>
<path d="M33.0026 25.6663C33.0026 26.6789 32.1818 27.4997 31.1693 27.4997C30.1567 27.4997 29.3359 26.6789 29.3359 25.6663C29.3359 24.6538 30.1567 23.833 31.1693 23.833C32.1818 23.833 33.0026 24.6538 33.0026 25.6663Z" fill="#89A3A5"/>
<path d="M20.1693 23.833C19.1567 23.833 18.3359 24.6538 18.3359 25.6663C18.3359 26.6789 19.1567 27.4997 20.1693 27.4997H23.8359C24.8485 27.4997 25.6693 26.6789 25.6693 25.6663C25.6693 24.6538 24.8485 23.833 23.8359 23.833H20.1693Z" fill="#89A3A5"/>
<path fill-rule="evenodd" clip-rule="evenodd" d="M9.16796 17.416C9.16797 17.208 9.20364 16.9965 9.27885 16.7896L12.4668 8.02283C13.0176 6.50794 14.4574 5.49951 16.0693 5.49951H27.9343C29.5462 5.49951 30.9859 6.50794 31.5368 8.02283L34.7247 16.7896C34.7999 16.9965 34.8356 17.208 34.8356 17.416C37.8727 17.4166 40.3346 19.8788 40.3346 22.916V32.9993C40.3346 34.0119 39.5138 34.8327 38.5013 34.8327H36.6686V36.6663C36.6686 37.6789 35.8478 38.4997 34.8353 38.4997C33.8228 38.4997 33.002 37.6789 33.002 36.6663V34.8327H11.0006V36.666C11.0006 37.6785 10.1798 38.4993 9.16732 38.4993C8.1548 38.4993 7.33398 37.6785 7.33398 36.666V34.8327H5.5013C4.48878 34.8327 3.66797 34.0119 3.66797 32.9993V22.916C3.66797 19.8784 6.1304 17.416 9.16796 17.416ZM15.9127 9.27589C15.9366 9.21002 15.9992 9.16618 16.0693 9.16618H27.9343C28.0044 9.16618 28.0669 9.21002 28.0909 9.27589L31.0509 17.416H12.9526L15.9127 9.27589ZM9.16796 21.0827C8.15544 21.0827 7.33463 21.9035 7.33463 22.916V31.166H36.6679V22.916C36.6679 21.9035 35.8471 21.0827 34.8346 21.0827H9.16796Z" fill="#89A3A5"/>
</svg>
