<svg width="44" height="44" viewBox="0 0 44 44" fill="none" xmlns="http://www.w3.org/2000/svg">
<path fill-rule="evenodd" clip-rule="evenodd" d="M40.3327 21.9998V12.8332C40.3327 7.77056 36.2286 3.6665 31.166 3.6665H12.8327C7.77007 3.6665 3.66602 7.77056 3.66602 12.8332V21.9998C3.66602 27.0624 7.77007 31.1665 12.8327 31.1665H20.166V36.6665H14.6673C13.6548 36.6665 12.834 37.4873 12.834 38.4998C12.834 39.5123 13.6548 40.3331 14.6673 40.3331H21.9643C21.976 40.3334 21.9876 40.3335 21.9993 40.3335C22.0111 40.3335 22.0227 40.3334 22.0344 40.3331H29.334C30.3465 40.3331 31.1673 39.5123 31.1673 38.4998C31.1673 37.4873 30.3465 36.6665 29.334 36.6665H23.8327V31.1665H31.166C36.2286 31.1665 40.3327 27.0624 40.3327 21.9998ZM7.33268 20.1665L36.666 20.1665V12.8332C36.666 9.7956 34.2036 7.33317 31.166 7.33317L12.8327 7.33317C9.79511 7.33317 7.33268 9.7956 7.33268 12.8332L7.33268 20.1665ZM36.353 23.8332L7.64564 23.8331C8.40067 25.9693 10.4379 27.4998 12.8327 27.4998L31.166 27.4998C33.5607 27.4998 35.598 25.9693 36.353 23.8332Z" fill="#89A3A5"/>
</svg>
