<svg width="44" height="44" viewBox="0 0 44 44" fill="none" xmlns="http://www.w3.org/2000/svg">
<path fill-rule="evenodd" clip-rule="evenodd" d="M14.6666 5.5C9.60403 5.5 5.5 9.60403 5.5 14.6666V29.3332C5.5 34.3957 9.60403 38.4998 14.6666 38.4998H29.3332C34.3957 38.4998 38.4998 34.3957 38.4998 29.3332V14.6666C38.4998 9.60403 34.3957 5.5 29.3332 5.5H14.6666ZM34.8331 20.333V14.6666C34.8331 11.6291 32.3707 9.16664 29.3332 9.16664H14.6666C11.6291 9.16664 9.16664 11.6291 9.16664 14.6666V20.333H12.8584L17.2048 13.6652C17.5951 13.0664 18.2979 12.7491 19.0052 12.8522C19.7125 12.9554 20.2954 13.4602 20.4984 14.1456L24.1304 26.4034L26.9074 21.2912C27.2282 20.7007 27.8463 20.333 28.5184 20.333H34.8331ZM9.16664 23.9996H13.8518C14.4715 23.9996 15.0492 23.6866 15.3876 23.1675L18.11 18.9912L21.8717 31.6871C22.0823 32.398 22.7004 32.912 23.4378 32.9895C24.1751 33.0671 24.8866 32.6929 25.2405 32.0414L29.6088 23.9996H34.8331V29.3332C34.8331 32.3707 32.3707 34.8331 29.3332 34.8331H14.6666C11.6291 34.8331 9.16664 32.3707 9.16664 29.3332V23.9996Z" fill="#89A3A5"/>
</svg>
