<svg width="44" height="44" viewBox="0 0 44 44" fill="none" xmlns="http://www.w3.org/2000/svg">
    <path fill-rule="evenodd" clip-rule="evenodd" d="M14.6666 5.5C9.60403 5.5 5.5 9.60403 5.5 14.6666V29.3332C5.5 34.3957 9.60402 38.4998 14.6666 38.4998H29.3332C34.3957 38.4998 38.4998 34.3957 38.4998 29.3332V14.6666C38.4998 9.60403 34.3957 5.5 29.3332 5.5H14.6666ZM23.8336 9.16664V20.1665H34.8331V14.6666C34.8331 11.6291 32.3707 9.16664 29.3332 9.16664H23.8336ZM20.167 9.16664L20.167 20.1665H9.16664V14.6666C9.16664 11.6291 11.6291 9.16664 14.6666 9.16664H20.167ZM34.8331 23.8331H23.8336V34.8331H29.3332C32.3707 34.8331 34.8331 32.3707 34.8331 29.3332V23.8331ZM20.167 34.8331L20.167 23.8331H9.16664V29.3332C9.16664 32.3707 11.6291 34.8331 14.6666 34.8331H20.167Z" fill="#89A3A5"/>
</svg>
