<svg width="44" height="44" viewBox="0 0 44 44" fill="none" xmlns="http://www.w3.org/2000/svg">
<path fill-rule="evenodd" clip-rule="evenodd" d="M22 17.4168C22 14.8855 24.052 12.8335 26.5833 12.8335C29.1146 12.8335 31.1667 14.8855 31.1667 17.4168C31.1667 19.9481 29.1146 22.0002 26.5833 22.0002C24.052 22.0002 22 19.9481 22 17.4168ZM26.5833 16.5002C26.0771 16.5002 25.6667 16.9106 25.6667 17.4168C25.6667 17.9231 26.0771 18.3335 26.5833 18.3335C27.0896 18.3335 27.5 17.9231 27.5 17.4168C27.5 16.9106 27.0896 16.5002 26.5833 16.5002Z" fill="#89A3A5"/>
<path fill-rule="evenodd" clip-rule="evenodd" d="M5.5 14.6667C5.5 9.60405 9.60405 5.5 14.6667 5.5H29.3333C34.3959 5.5 38.5 9.60405 38.5 14.6667V29.3331C38.5 34.3958 34.3959 38.5 29.3333 38.5H14.6667C9.60405 38.5 5.5 34.3959 5.5 29.3333V14.6667ZM9.16666 28.2592V29.3333C9.16666 32.3709 11.6291 34.8333 14.6667 34.8333H29.3333C31.7281 34.8333 33.7654 33.3028 34.5204 31.1665H26.1115C24.1666 31.1665 22.3013 30.3939 20.926 29.0186L17.2594 25.3519C15.8275 23.92 13.5059 23.92 12.0739 25.3519L9.16666 28.2592ZM34.8333 27.4998H26.1115C25.139 27.4998 24.2064 27.1135 23.5188 26.4259L19.8521 22.7592C16.9883 19.8954 12.3451 19.8954 9.48121 22.7592L9.16666 23.0738V14.6667C9.16666 11.6291 11.6291 9.16666 14.6667 9.16666H29.3333C32.3709 9.16666 34.8333 11.6291 34.8333 14.6667V27.4998Z" fill="#89A3A5"/>
</svg>
