<svg width="44" height="44" viewBox="0 0 44 44" fill="none" xmlns="http://www.w3.org/2000/svg">
<path d="M31.1673 20.1667C30.1548 20.1667 29.334 19.3458 29.334 18.3333V14.6668H25.6673C24.6548 14.6668 23.834 13.846 23.834 12.8335C23.834 11.821 24.6548 11.0002 25.6673 11.0002H29.334V7.33333C29.334 6.32081 30.1548 5.5 31.1673 5.5C32.1798 5.5 33.0006 6.32081 33.0006 7.33333V11.0002H36.6673C37.6798 11.0002 38.5006 11.821 38.5006 12.8335C38.5006 13.846 37.6798 14.6668 36.6673 14.6668H33.0006V18.3333C33.0006 19.3458 32.1798 20.1667 31.1673 20.1667Z" fill="#89A3A5"/>
<path fill-rule="evenodd" clip-rule="evenodd" d="M9.33333 5.50015C7.21624 5.50015 5.5 7.2164 5.5 9.33349V20.1668C5.5 20.1669 5.5 20.1668 5.5 20.1668C5.5 30.292 13.7081 38.5003 23.8333 38.5003C23.8412 38.5003 23.8491 38.5003 23.8569 38.5002H34.6667C36.7838 38.5002 38.5 36.7839 38.5 34.6668V27.5002C38.5 26.4876 37.6792 25.6668 36.6667 25.6668H23.8333C22.8208 25.6668 22 26.4876 22 27.5002V34.7202C15.3656 33.8929 10.1073 28.6345 9.28011 22.0001H16.5C17.5125 22.0001 18.3333 21.1793 18.3333 20.1668V7.33348C18.3333 6.32096 17.5125 5.50015 16.5 5.50015H9.33333ZM9.16666 9.33349C9.16666 9.24144 9.24129 9.16682 9.33333 9.16682H14.6667V18.3335H9.16666V9.33349ZM34.8333 34.6668C34.8333 34.7589 34.7587 34.8335 34.6667 34.8335H25.6667V29.3335H34.8333V34.6668Z" fill="#89A3A5"/>
</svg>
