<svg width="44" height="44" viewBox="0 0 44 44" fill="none" xmlns="http://www.w3.org/2000/svg">
    <path fill-rule="evenodd" clip-rule="evenodd" d="M21.9993 3.6665C15.8012 3.6665 9.9337 5.03384 4.72262 7.47119C4.26074 7.68722 3.9097 8.08585 3.7538 8.57134C3.59791 9.05683 3.65125 9.58531 3.90101 10.0299L20.401 39.3978C20.7256 39.9755 21.3367 40.3331 21.9993 40.3331C22.662 40.3331 23.2731 39.9755 23.5977 39.3978L40.0977 10.0299C40.3474 9.58531 40.4008 9.05683 40.2449 8.57134C40.089 8.08585 39.7379 7.68722 39.2761 7.47119C34.065 5.03384 28.1975 3.6665 21.9993 3.6665ZM11.0447 15.2591L8.0917 10.0031C12.3556 8.28588 17.056 7.33317 21.9993 7.33317C26.9427 7.33317 31.6431 8.28588 35.907 10.0031L32.9546 15.258C29.5642 13.6956 25.8698 12.8335 22.0008 12.8335C18.131 12.8335 14.4358 13.696 11.0447 15.2591ZM12.8474 18.4676L14.4566 21.3318C15.4689 20.333 16.0932 18.9476 16.0932 17.4169C16.0932 17.3783 16.0928 17.3398 16.0921 17.3015C14.9836 17.6074 13.9004 17.9979 12.8474 18.4676ZM21.9993 34.757L16.2914 24.5976C18.4019 22.9207 19.7599 20.3277 19.7599 17.4169C19.7599 17.1476 19.7482 16.8807 19.7254 16.6169C20.4757 16.5396 21.2346 16.5002 22.0008 16.5002C22.6217 16.5002 23.2379 16.526 23.8485 16.577C22.7055 17.7356 22 19.327 22 21.0832C22 23.8783 23.7872 26.256 26.2811 27.1359L21.9993 34.757ZM28.1442 23.8198L30.6123 19.4269C30.1072 18.759 29.3119 18.3332 28.4167 18.3332C26.8979 18.3332 25.6667 19.5644 25.6667 21.0832C25.6667 22.51 26.7533 23.683 28.1442 23.8198Z" fill="#89A3A5"/>
</svg>
