<svg width="62" height="44" viewBox="0 0 62 44" fill="none" xmlns="http://www.w3.org/2000/svg">
<path fill-rule="evenodd" clip-rule="evenodd" d="M33.3337 34.167C34.3462 34.167 35.167 33.3462 35.167 32.3337L35.167 10.667C35.167 9.65444 34.3462 8.83363 33.3337 8.83363L29.667 8.83363C28.6544 8.83363 27.8336 9.65444 27.8336 10.667L27.8336 32.3337C27.8336 33.3462 28.6544 34.167 29.667 34.167H33.3337ZM38.8336 32.3337C38.8336 35.3712 36.3712 37.8336 33.3337 37.8336H29.667C26.6294 37.8336 24.167 35.3712 24.167 32.3337L24.167 10.6669C24.167 7.62941 26.6294 5.16699 29.667 5.16699L33.3337 5.16699C36.3712 5.16699 38.8336 7.62941 38.8336 10.667L38.8336 32.3337Z" fill="#89A3A5"/>
</svg>
