<svg width="62" height="44" viewBox="0 0 62 44" fill="none" xmlns="http://www.w3.org/2000/svg">
<path fill-rule="evenodd" clip-rule="evenodd" d="M23.3327 37.8327C26.3702 37.8327 28.8327 35.3702 28.8327 32.3327L28.8327 10.666C28.8327 7.62843 26.3702 5.16602 23.3327 5.16602H19.666C16.6284 5.16602 14.166 7.62843 14.166 10.666V32.3327C14.166 35.3702 16.6284 37.8327 19.666 37.8327H23.3327ZM25.166 32.3327C25.166 33.3452 24.3452 34.166 23.3327 34.166H19.666C18.6535 34.166 17.8327 33.3452 17.8327 32.3327L17.8327 10.666C17.8327 9.65346 18.6535 8.83265 19.666 8.83265L23.3327 8.83265C24.3452 8.83265 25.166 9.65346 25.166 10.666L25.166 32.3327Z" fill="#89A3A5"/>
<path fill-rule="evenodd" clip-rule="evenodd" d="M42.3327 37.8327C45.3702 37.8327 47.8327 35.3702 47.8327 32.3327L47.8327 10.666C47.8327 7.62843 45.3702 5.16602 42.3327 5.16602H38.666C35.6284 5.16602 33.166 7.62843 33.166 10.666L33.166 32.3327C33.166 35.3702 35.6284 37.8327 38.666 37.8327H42.3327ZM44.166 32.3327C44.166 33.3452 43.3452 34.166 42.3327 34.166H38.666C37.6535 34.166 36.8327 33.3452 36.8327 32.3327L36.8327 10.666C36.8327 9.65346 37.6535 8.83265 38.666 8.83265L42.3327 8.83265C43.3452 8.83265 44.166 9.65346 44.166 10.666V32.3327Z" fill="#89A3A5"/>
</svg>
