<svg width="62" height="44" viewBox="0 0 62 44" fill="none" xmlns="http://www.w3.org/2000/svg">
<path fill-rule="evenodd" clip-rule="evenodd" d="M13.3327 37.8327C16.3702 37.8327 18.8327 35.3702 18.8327 32.3327L18.8327 10.666C18.8327 7.62843 16.3702 5.16602 13.3327 5.16602H9.66598C6.62844 5.16602 4.16602 7.62843 4.16602 10.666L4.16602 32.3327C4.16602 35.3702 6.62843 37.8327 9.66598 37.8327H13.3327ZM15.166 32.3327C15.166 33.3452 14.3452 34.166 13.3327 34.166H9.66598C8.65346 34.166 7.83266 33.3452 7.83266 32.3327L7.83266 10.666C7.83266 9.65346 8.65346 8.83265 9.66598 8.83265L13.3327 8.83265C14.3452 8.83265 15.166 9.65346 15.166 10.666L15.166 32.3327Z" fill="#89A3A5"/>
<path fill-rule="evenodd" clip-rule="evenodd" d="M37.8327 32.3327C37.8327 35.3702 35.3702 37.8327 32.3327 37.8327H28.666C25.6284 37.8327 23.166 35.3702 23.166 32.3327L23.166 10.666C23.166 7.62843 25.6284 5.16602 28.666 5.16602H32.3327C35.3702 5.16602 37.8327 7.62843 37.8327 10.666L37.8327 32.3327ZM32.3327 34.166C33.3452 34.166 34.166 33.3452 34.166 32.3327V10.666C34.166 9.65346 33.3452 8.83265 32.3327 8.83265L28.666 8.83265C27.6535 8.83265 26.8327 9.65346 26.8327 10.666L26.8327 32.3327C26.8327 33.3452 27.6535 34.166 28.666 34.166H32.3327Z" fill="#89A3A5"/>
<path fill-rule="evenodd" clip-rule="evenodd" d="M56.8327 32.3327C56.8327 35.3702 54.3702 37.8327 51.3327 37.8327H47.666C44.6284 37.8327 42.166 35.3702 42.166 32.3327L42.166 10.666C42.166 7.62843 44.6284 5.16602 47.666 5.16602H51.3327C54.3702 5.16602 56.8327 7.62843 56.8327 10.666L56.8327 32.3327ZM51.3327 34.166C52.3452 34.166 53.166 33.3452 53.166 32.3327L53.166 10.666C53.166 9.65346 52.3452 8.83265 51.3327 8.83265L47.666 8.83265C46.6535 8.83265 45.8327 9.65346 45.8327 10.666L45.8327 32.3327C45.8327 33.3452 46.6535 34.166 47.666 34.166H51.3327Z" fill="#89A3A5"/>
</svg>
