<svg width="44" height="44" viewBox="0 0 44 44" fill="none" xmlns="http://www.w3.org/2000/svg">
<path fill-rule="evenodd" clip-rule="evenodd" d="M11.9169 3.6665C7.36062 3.6665 3.66699 7.36013 3.66699 11.9164C3.66699 16.4728 7.36062 20.1664 11.9169 20.1664C14.0895 20.1664 16.0659 19.3266 17.5393 17.954L23.0134 22L17.5397 26.0458C16.0663 24.6729 14.0897 23.833 11.9169 23.833C7.36062 23.833 3.66699 27.5266 3.66699 32.083C3.66699 36.6393 7.36062 40.3329 11.9169 40.3329C16.4733 40.3329 20.1669 36.6393 20.1669 32.083C20.1669 31.0235 19.9672 30.0106 19.6033 29.08L26.0977 24.2798L37.4099 32.641C38.2242 33.2428 39.3721 33.0706 39.9739 32.2564C40.5758 31.4421 40.4036 30.2942 39.5893 29.6923L29.1821 22L39.5893 14.3078C40.4036 13.7059 40.5758 12.558 39.9739 11.7437C39.3721 10.9295 38.2242 10.7573 37.4099 11.3591L26.0977 19.7203L19.6031 14.9199C19.9671 13.9892 20.1669 12.9761 20.1669 11.9164C20.1669 7.36013 16.4733 3.6665 11.9169 3.6665ZM7.33363 11.9164C7.33363 9.38516 9.38565 7.33314 11.9169 7.33314C14.4482 7.33314 16.5002 9.38516 16.5002 11.9164C16.5002 14.4477 14.4482 16.4997 11.9169 16.4997C9.38565 16.4997 7.33363 14.4477 7.33363 11.9164ZM7.33363 32.083C7.33363 29.5517 9.38565 27.4996 11.9169 27.4996C14.4482 27.4996 16.5002 29.5517 16.5002 32.083C16.5002 34.6142 14.4482 36.6663 11.9169 36.6663C9.38565 36.6663 7.33363 34.6142 7.33363 32.083Z" fill="#89A3A5"/>
</svg>
