<svg width="44" height="44" viewBox="0 0 44 44" fill="none" xmlns="http://www.w3.org/2000/svg">
<path fill-rule="evenodd" clip-rule="evenodd" d="M21.9999 20.1668C20.9874 20.1668 20.1666 20.9876 20.1666 22.0002C20.1666 23.0127 20.9874 23.8335 21.9999 23.8335C23.0124 23.8335 23.8332 23.0127 23.8332 22.0002C23.8332 20.9876 23.0124 20.1668 21.9999 20.1668ZM16.4999 22.0002C16.4999 18.9626 18.9623 16.5002 21.9999 16.5002C25.0375 16.5002 27.4999 18.9626 27.4999 22.0002C27.4999 25.0377 25.0375 27.5002 21.9999 27.5002C18.9623 27.5002 16.4999 25.0377 16.4999 22.0002Z" fill="#89A3A5"/>
<path fill-rule="evenodd" clip-rule="evenodd" d="M26.0979 7.91332L25.9758 8.34089C25.526 9.915 24.0873 11.0002 22.4502 11.0002H21.5493C19.9122 11.0002 18.4734 9.915 18.0237 8.34089L17.9015 7.91332C16.861 8.21545 15.868 8.62993 14.9362 9.14304L15.1514 9.53032C15.9464 10.9614 15.6965 12.7461 14.5389 13.9037L13.9018 14.5408C12.7442 15.6984 10.9595 15.9483 9.52841 15.1533L9.14161 14.9384C8.62894 15.8696 8.21478 16.8621 7.91283 17.902L8.34071 18.0242C9.91482 18.474 11.0001 19.9127 11.0001 21.5498V22.4507C11.0001 24.0878 9.91481 25.5265 8.34071 25.9763L7.91283 26.0985C8.21474 27.1383 8.62884 28.1306 9.14142 29.0618L9.52841 28.8468C10.9595 28.0517 12.7442 28.3017 13.9018 29.4593L14.5389 30.0963C15.6965 31.2539 15.9464 33.0386 15.1514 34.4697L14.936 34.8573C15.8678 35.3705 16.861 35.785 17.9015 36.0872L18.0237 35.6596C18.4734 34.0855 19.9122 33.0002 21.5493 33.0002H22.4502C24.0873 33.0002 25.526 34.0855 25.9758 35.6596L26.0979 36.0872C27.1376 35.7853 28.1299 35.3713 29.0609 34.8587L28.8454 34.4707C28.0503 33.0396 28.3003 31.2549 29.4579 30.0973L30.0949 29.4602C31.2525 28.3026 33.0372 28.0527 34.4683 28.8477L34.857 29.0637C35.3701 28.1319 35.7846 27.1389 36.0867 26.0984L35.6591 25.9763C34.085 25.5265 32.9997 24.0878 32.9997 22.4507V21.5498C32.9997 19.9127 34.085 18.474 35.6591 18.0242L36.0867 17.9021C35.7846 16.8617 35.3702 15.8688 34.8572 14.9372L34.4683 15.1532C33.0372 15.9483 31.2525 15.6983 30.0949 14.5407L29.4579 13.9037C28.3003 12.7461 28.0503 10.9613 28.8454 9.53026L29.0611 9.14187C28.13 8.6293 27.1377 8.21521 26.0979 7.91332ZM26.1241 36.1781C26.1242 36.1785 26.1241 36.1782 26.1241 36.1781ZM17.8754 36.1781C17.8753 36.1784 17.8754 36.1781 17.8754 36.1781ZM22.5978 6.81704C23.0978 5.06695 24.9205 3.78093 26.9068 4.33147C28.3592 4.73407 29.7389 5.31071 31.0218 6.03717C32.8148 7.05249 33.1954 9.25039 32.311 10.8422L32.0506 11.311L32.6876 11.948L33.1568 11.6873C34.7485 10.803 36.9462 11.1835 37.9617 12.9762C38.6887 14.2596 39.2657 15.64 39.6685 17.0932C40.2191 19.0795 38.933 20.9022 37.1829 21.4022L36.6664 21.5498V22.4507L37.1829 22.5983C38.933 23.0983 40.2191 24.921 39.6685 26.9073C39.2657 28.3607 38.6885 29.7412 37.9614 31.0247C36.9459 32.8174 34.7483 33.1978 33.1566 32.3135L32.6876 32.053L32.0506 32.69L32.3108 33.1584C33.1952 34.7502 32.8146 36.9482 31.0215 37.9635C29.7387 38.6899 28.3591 39.2665 26.9068 39.669C24.9205 40.2196 23.0978 38.9335 22.5978 37.1835L22.4502 36.6669H21.5493L21.4017 37.1835C20.9017 38.9335 19.079 40.2196 17.0927 39.669C15.6392 39.2661 14.2586 38.6889 12.9749 37.9617C11.1823 36.9462 10.8019 34.7486 11.6862 33.157L11.9461 32.689L11.3091 32.052L10.8418 32.3116C9.24995 33.196 7.05207 32.8154 6.03673 31.0224C5.31025 29.7395 4.7336 28.3598 4.33099 26.9074C3.78043 24.9211 5.06645 23.0984 6.81655 22.5984L7.3334 22.4507L7.3334 21.5498L6.81656 21.4021C5.06645 20.9021 3.78043 19.0794 4.33099 17.0931C4.73364 15.6405 5.31038 14.2607 6.03697 12.9777C7.05233 11.1848 9.25017 10.8042 10.842 11.6885L11.3091 11.948L11.9461 11.311L11.6864 10.8434C10.8021 9.25175 11.1825 7.05414 12.9751 6.03864C14.2587 5.31149 15.6393 4.73434 17.0927 4.33147C19.079 3.78093 20.9017 5.06695 21.4017 6.81704L21.5493 7.33358L22.4502 7.33358L22.5978 6.81704Z" fill="#89A3A5"/>
</svg>
