<svg width="44" height="44" viewBox="0 0 44 44" fill="none" xmlns="http://www.w3.org/2000/svg">
<path d="M36.208 15.125L36.208 6.87506" stroke="#89A3A5" stroke-width="3.66664" stroke-linecap="round"/>
<path d="M40.333 11L32.0831 11" stroke="#89A3A5" stroke-width="3.66664" stroke-linecap="round"/>
<circle cx="19.2496" cy="13.7501" r="6.41662" stroke="#89A3A5" stroke-width="3.66664"/>
<path d="M6.41699 33.7884C6.41699 32.8682 6.68401 31.9609 7.35839 31.3348C8.9017 29.902 12.4961 27.5 19.2502 27.5C26.0044 27.5 29.5988 29.902 31.1421 31.3348C31.8165 31.9609 32.0835 32.8682 32.0835 33.7884V33.7884C32.0835 36.3905 29.974 38.4999 27.3719 38.4999H11.1285C8.52642 38.4999 6.41699 36.3905 6.41699 33.7884V33.7884Z" stroke="#89A3A5" stroke-width="3.66664"/>
<path d="M34.375 15.1248C34.375 16.1373 35.1958 16.9581 36.2083 16.9581C37.2208 16.9581 38.0416 16.1373 38.0416 15.1248V12.8331L40.3327 12.8331C41.3452 12.8331 42.166 12.0123 42.166 10.9998C42.166 9.98725 41.3452 9.16645 40.3327 9.16645L38.0416 9.16645V6.87482C38.0416 5.86231 37.2208 5.0415 36.2083 5.0415C35.1958 5.0415 34.375 5.86231 34.375 6.87482V9.16645L32.0828 9.16645C31.0702 9.16645 30.2494 9.98725 30.2494 10.9998C30.2494 12.0123 31.0702 12.8331 32.0828 12.8331L34.375 12.8331V15.1248Z" fill="#89A3A5"/>
<path fill-rule="evenodd" clip-rule="evenodd" d="M11 13.75C11 9.1937 14.6936 5.50008 19.2499 5.50008C23.8063 5.50008 27.4999 9.1937 27.4999 13.75C27.4999 18.3063 23.8063 22 19.2499 22C14.6936 22 11 18.3063 11 13.75ZM19.2499 9.16672C16.7187 9.16672 14.6666 11.2187 14.6666 13.75C14.6666 16.2813 16.7187 18.3333 19.2499 18.3333C21.7812 18.3333 23.8332 16.2813 23.8332 13.75C23.8332 11.2187 21.7812 9.16672 19.2499 9.16672Z" fill="#89A3A5"/>
<path fill-rule="evenodd" clip-rule="evenodd" d="M19.2496 25.6666C12.0101 25.6666 7.9758 28.2592 6.11034 29.9912C4.94307 31.0749 4.58301 32.5477 4.58301 33.7883C4.58301 37.4029 7.51324 40.3331 11.1279 40.3331H27.3713C30.9859 40.3331 33.9161 37.4029 33.9161 33.7883C33.9161 32.5477 33.5561 31.0749 32.3888 29.9912C30.5233 28.2592 26.489 25.6666 19.2496 25.6666ZM8.60511 32.6783C9.82627 31.5445 12.9808 29.3332 19.2496 29.3332C25.5184 29.3332 28.6729 31.5445 29.894 32.6783C30.0755 32.8468 30.2495 33.1885 30.2495 33.7883C30.2495 35.3779 28.9609 36.6665 27.3713 36.6665H11.1279C9.53827 36.6665 8.24965 35.3779 8.24965 33.7883C8.24965 33.1885 8.42363 32.8468 8.60511 32.6783Z" fill="#89A3A5"/>
</svg>
